<mxfile host="app.diagrams.net" modified="2023-07-20T14:27:48.632Z" agent="Mozilla/5.0 (Windows NT 10.0; Win64; x64) AppleWebKit/537.36 (KHTML, like Gecko) Chrome/114.0.0.0 Safari/537.36" etag="zS9nDw6kch7Kvc0UgLwS" version="21.6.3" type="device">
  <diagram name="Page-1" id="gFOoy2xCIgCNjS1E_ed_">
    <mxGraphModel dx="989" dy="527" grid="1" gridSize="10" guides="1" tooltips="1" connect="1" arrows="1" fold="1" page="1" pageScale="1" pageWidth="827" pageHeight="1169" math="0" shadow="0">
      <root>
        <mxCell id="0" />
        <mxCell id="1" parent="0" />
        <mxCell id="KGoWBrMogVdodA1RIXWE-1" value="" style="rounded=0;whiteSpace=wrap;html=1;" vertex="1" parent="1">
          <mxGeometry x="362" width="120" height="110" as="geometry" />
        </mxCell>
        <mxCell id="KGoWBrMogVdodA1RIXWE-2" value="" style="endArrow=none;html=1;rounded=0;entryX=1;entryY=1;entryDx=0;entryDy=0;" edge="1" parent="1" target="KGoWBrMogVdodA1RIXWE-3">
          <mxGeometry width="50" height="50" relative="1" as="geometry">
            <mxPoint x="362" y="30" as="sourcePoint" />
            <mxPoint x="484" y="30" as="targetPoint" />
          </mxGeometry>
        </mxCell>
        <mxCell id="KGoWBrMogVdodA1RIXWE-3" value="film" style="text;html=1;strokeColor=none;fillColor=none;align=center;verticalAlign=middle;whiteSpace=wrap;rounded=0;" vertex="1" parent="1">
          <mxGeometry x="362" width="120" height="30" as="geometry" />
        </mxCell>
        <mxCell id="KGoWBrMogVdodA1RIXWE-5" value="" style="rounded=0;whiteSpace=wrap;html=1;" vertex="1" parent="1">
          <mxGeometry x="200" y="160" width="120" height="90" as="geometry" />
        </mxCell>
        <mxCell id="KGoWBrMogVdodA1RIXWE-6" value="" style="endArrow=none;html=1;rounded=0;entryX=1;entryY=1;entryDx=0;entryDy=0;" edge="1" parent="1">
          <mxGeometry width="50" height="50" relative="1" as="geometry">
            <mxPoint x="200" y="190" as="sourcePoint" />
            <mxPoint x="320" y="190" as="targetPoint" />
          </mxGeometry>
        </mxCell>
        <mxCell id="KGoWBrMogVdodA1RIXWE-8" value="" style="rounded=0;whiteSpace=wrap;html=1;" vertex="1" parent="1">
          <mxGeometry x="575" y="130" width="120" height="120" as="geometry" />
        </mxCell>
        <mxCell id="KGoWBrMogVdodA1RIXWE-9" value="" style="endArrow=none;html=1;rounded=0;entryX=1;entryY=1;entryDx=0;entryDy=0;" edge="1" parent="1">
          <mxGeometry width="50" height="50" relative="1" as="geometry">
            <mxPoint x="575" y="160" as="sourcePoint" />
            <mxPoint x="694.9999999999998" y="160" as="targetPoint" />
          </mxGeometry>
        </mxCell>
        <mxCell id="KGoWBrMogVdodA1RIXWE-15" value="" style="endArrow=none;html=1;rounded=0;entryX=0;entryY=0.5;entryDx=0;entryDy=0;exitX=1;exitY=0;exitDx=0;exitDy=0;" edge="1" parent="1" source="KGoWBrMogVdodA1RIXWE-36" target="KGoWBrMogVdodA1RIXWE-20">
          <mxGeometry width="50" height="50" relative="1" as="geometry">
            <mxPoint x="300" y="100" as="sourcePoint" />
            <mxPoint x="407.0000000000075" y="253.50000000000023" as="targetPoint" />
          </mxGeometry>
        </mxCell>
        <mxCell id="KGoWBrMogVdodA1RIXWE-19" value="" style="endArrow=none;html=1;rounded=0;exitX=1;exitY=0.25;exitDx=0;exitDy=0;entryX=0;entryY=0.5;entryDx=0;entryDy=0;" edge="1" parent="1" source="KGoWBrMogVdodA1RIXWE-20" target="KGoWBrMogVdodA1RIXWE-24">
          <mxGeometry width="50" height="50" relative="1" as="geometry">
            <mxPoint x="439.9999999999927" y="253.50000000000023" as="sourcePoint" />
            <mxPoint x="417" y="264" as="targetPoint" />
          </mxGeometry>
        </mxCell>
        <mxCell id="KGoWBrMogVdodA1RIXWE-20" value="n°film" style="text;html=1;strokeColor=none;fillColor=none;align=left;verticalAlign=middle;whiteSpace=wrap;rounded=0;" vertex="1" parent="1">
          <mxGeometry x="362" y="30" width="120" height="30" as="geometry" />
        </mxCell>
        <mxCell id="KGoWBrMogVdodA1RIXWE-21" value="nam" style="text;html=1;strokeColor=none;fillColor=none;align=left;verticalAlign=middle;whiteSpace=wrap;rounded=0;" vertex="1" parent="1">
          <mxGeometry x="363" y="50" width="120" height="30" as="geometry" />
        </mxCell>
        <mxCell id="KGoWBrMogVdodA1RIXWE-22" value="date" style="text;html=1;strokeColor=none;fillColor=none;align=left;verticalAlign=middle;whiteSpace=wrap;rounded=0;" vertex="1" parent="1">
          <mxGeometry x="363" y="80" width="120" height="30" as="geometry" />
        </mxCell>
        <mxCell id="KGoWBrMogVdodA1RIXWE-24" value="" style="rounded=1;whiteSpace=wrap;html=1;arcSize=50;" vertex="1" parent="1">
          <mxGeometry x="530" y="15" width="210" height="75" as="geometry" />
        </mxCell>
        <mxCell id="KGoWBrMogVdodA1RIXWE-27" value="" style="endArrow=classic;html=1;rounded=0;entryX=0.5;entryY=0;entryDx=0;entryDy=0;exitX=0.5;exitY=1;exitDx=0;exitDy=0;" edge="1" parent="1" source="KGoWBrMogVdodA1RIXWE-24">
          <mxGeometry width="50" height="50" relative="1" as="geometry">
            <mxPoint x="460" y="180" as="sourcePoint" />
            <mxPoint x="634.9999999999998" y="130" as="targetPoint" />
          </mxGeometry>
        </mxCell>
        <mxCell id="KGoWBrMogVdodA1RIXWE-28" value="1,1" style="text;html=1;strokeColor=none;fillColor=none;align=center;verticalAlign=middle;whiteSpace=wrap;rounded=0;rotation=10;" vertex="1" parent="1">
          <mxGeometry x="494" y="15" width="25" height="30" as="geometry" />
        </mxCell>
        <mxCell id="KGoWBrMogVdodA1RIXWE-29" value="0,n" style="text;html=1;strokeColor=none;fillColor=none;align=center;verticalAlign=middle;whiteSpace=wrap;rounded=0;rotation=0;" vertex="1" parent="1">
          <mxGeometry x="636" y="90" width="25" height="30" as="geometry" />
        </mxCell>
        <mxCell id="KGoWBrMogVdodA1RIXWE-30" value="1,1" style="text;html=1;strokeColor=none;fillColor=none;align=center;verticalAlign=middle;whiteSpace=wrap;rounded=0;rotation=0;" vertex="1" parent="1">
          <mxGeometry x="309" y="52" width="25" height="30" as="geometry" />
        </mxCell>
        <mxCell id="KGoWBrMogVdodA1RIXWE-32" value="genre" style="text;html=1;strokeColor=none;fillColor=none;align=center;verticalAlign=middle;whiteSpace=wrap;rounded=0;" vertex="1" parent="1">
          <mxGeometry x="200" y="160" width="120" height="30" as="geometry" />
        </mxCell>
        <mxCell id="KGoWBrMogVdodA1RIXWE-33" value="acteurs" style="text;html=1;strokeColor=none;fillColor=none;align=center;verticalAlign=middle;whiteSpace=wrap;rounded=0;" vertex="1" parent="1">
          <mxGeometry x="575" y="130" width="120" height="30" as="geometry" />
        </mxCell>
        <mxCell id="KGoWBrMogVdodA1RIXWE-34" value="n°acteurs" style="text;html=1;strokeColor=none;fillColor=none;align=left;verticalAlign=middle;whiteSpace=wrap;rounded=0;" vertex="1" parent="1">
          <mxGeometry x="575" y="160" width="120" height="30" as="geometry" />
        </mxCell>
        <mxCell id="KGoWBrMogVdodA1RIXWE-35" value="n°genre" style="text;html=1;strokeColor=none;fillColor=none;align=left;verticalAlign=middle;whiteSpace=wrap;rounded=0;" vertex="1" parent="1">
          <mxGeometry x="200" y="190" width="120" height="30" as="geometry" />
        </mxCell>
        <mxCell id="KGoWBrMogVdodA1RIXWE-36" value="" style="ellipse;whiteSpace=wrap;html=1;aspect=fixed;" vertex="1" parent="1">
          <mxGeometry x="280" y="90" width="30" height="30" as="geometry" />
        </mxCell>
        <mxCell id="KGoWBrMogVdodA1RIXWE-38" value="" style="endArrow=classic;html=1;rounded=0;entryX=0.5;entryY=0;entryDx=0;entryDy=0;exitX=0;exitY=1;exitDx=0;exitDy=0;" edge="1" parent="1" source="KGoWBrMogVdodA1RIXWE-36" target="KGoWBrMogVdodA1RIXWE-32">
          <mxGeometry width="50" height="50" relative="1" as="geometry">
            <mxPoint x="300" y="140" as="sourcePoint" />
            <mxPoint x="510" y="130" as="targetPoint" />
          </mxGeometry>
        </mxCell>
        <mxCell id="KGoWBrMogVdodA1RIXWE-39" value="1,n" style="text;html=1;strokeColor=none;fillColor=none;align=center;verticalAlign=middle;whiteSpace=wrap;rounded=0;rotation=0;" vertex="1" parent="1">
          <mxGeometry x="255" y="110" width="25" height="30" as="geometry" />
        </mxCell>
        <mxCell id="KGoWBrMogVdodA1RIXWE-40" value="" style="endArrow=none;html=1;rounded=0;entryX=0.99;entryY=0.369;entryDx=0;entryDy=0;exitX=0.008;exitY=0.369;exitDx=0;exitDy=0;exitPerimeter=0;entryPerimeter=0;" edge="1" parent="1">
          <mxGeometry width="50" height="50" relative="1" as="geometry">
            <mxPoint x="531.8900000000001" y="45.00499999999995" as="sourcePoint" />
            <mxPoint x="738.1099999999999" y="45.00499999999995" as="targetPoint" />
          </mxGeometry>
        </mxCell>
        <mxCell id="KGoWBrMogVdodA1RIXWE-41" value="acteurs" style="text;html=1;strokeColor=none;fillColor=none;align=center;verticalAlign=middle;whiteSpace=wrap;rounded=0;fontSize=28;" vertex="1" parent="1">
          <mxGeometry x="540" y="15" width="190" height="30" as="geometry" />
        </mxCell>
        <mxCell id="KGoWBrMogVdodA1RIXWE-42" value="qté_acteurs" style="text;html=1;strokeColor=none;fillColor=none;align=center;verticalAlign=middle;whiteSpace=wrap;rounded=0;fontSize=29;" vertex="1" parent="1">
          <mxGeometry x="540" y="52" width="190" height="30" as="geometry" />
        </mxCell>
        <mxCell id="KGoWBrMogVdodA1RIXWE-43" value="nam_acteur" style="text;html=1;strokeColor=none;fillColor=none;align=left;verticalAlign=middle;whiteSpace=wrap;rounded=0;" vertex="1" parent="1">
          <mxGeometry x="575" y="190" width="115" height="30" as="geometry" />
        </mxCell>
        <mxCell id="KGoWBrMogVdodA1RIXWE-44" value="date_naisence" style="text;html=1;strokeColor=none;fillColor=none;align=left;verticalAlign=middle;whiteSpace=wrap;rounded=0;" vertex="1" parent="1">
          <mxGeometry x="575" y="220" width="120" height="30" as="geometry" />
        </mxCell>
        <mxCell id="KGoWBrMogVdodA1RIXWE-45" value="libellé" style="text;html=1;strokeColor=none;fillColor=none;align=left;verticalAlign=middle;whiteSpace=wrap;rounded=0;" vertex="1" parent="1">
          <mxGeometry x="200" y="220" width="120" height="30" as="geometry" />
        </mxCell>
      </root>
    </mxGraphModel>
  </diagram>
</mxfile>
